<svg width="667" height="150" viewBox="0 0 667 150" fill="none" xmlns="http://www.w3.org/2000/svg">
<path d="M57.16 49.48L26.632 76.744L57.064 103.432H44.488L18.088 80.392C17 79.496 16.456 78.312 16.456 76.84C16.456 75.368 17 74.152 18.088 73.192L44.68 49.48H57.16ZM146.699 109H137.099V89.8H83.4348V80.2H137.099V51.4H102.635C98.2828 51.4 94.2828 52.488 90.6348 54.664C86.9868 56.776 84.0748 59.656 81.8988 63.304C79.7868 66.952 78.7308 70.984 78.7308 75.4V109H69.1308V75.4C69.1308 70.792 69.9948 66.472 71.7228 62.44C73.4508 58.344 75.8508 54.76 78.9228 51.688C81.9948 48.552 85.5468 46.12 89.5788 44.392C93.6748 42.664 98.0268 41.8 102.635 41.8H146.699V109ZM242.014 75.4C242.014 80.072 241.278 84.456 239.806 88.552C238.334 92.584 236.222 96.136 233.47 99.208C230.782 102.28 227.518 104.68 223.678 106.408C219.902 108.136 215.71 109 211.102 109H177.214V99.4H211.102C215.518 99.4 219.326 98.312 222.526 96.136C225.726 93.96 228.158 91.08 229.822 87.496C231.55 83.848 232.414 79.816 232.414 75.4C232.414 70.984 231.55 66.952 229.822 63.304C228.158 59.656 225.726 56.776 222.526 54.664C219.326 52.488 215.518 51.4 211.102 51.4H172.414V109H162.814V41.8H211.102C215.71 41.8 219.902 42.664 223.678 44.392C227.518 46.12 230.782 48.552 233.47 51.688C236.222 54.76 238.334 58.344 239.806 62.44C241.278 66.472 242.014 70.792 242.014 75.4ZM263.914 109H254.314V41.8H263.914V109ZM359.106 89.8C359.106 93.32 358.242 96.552 356.514 99.496C354.786 102.376 352.45 104.68 349.506 106.408C346.626 108.136 343.426 109 339.906 109H294.402V99.4H339.906C342.53 99.4 344.77 98.472 346.626 96.616C348.546 94.696 349.506 92.424 349.506 89.8C349.506 87.176 348.546 84.936 346.626 83.08C344.77 81.16 342.53 80.2 339.906 80.2H294.402V70.6H330.306C332.93 70.6 335.17 69.672 337.026 67.816C338.946 65.896 339.906 63.624 339.906 61C339.906 58.376 338.946 56.136 337.026 54.28C335.17 52.36 332.93 51.4 330.306 51.4H289.602V109H280.002V41.8H330.306C333.826 41.8 337.026 42.664 339.906 44.392C342.85 46.12 345.186 48.456 346.914 51.4C348.642 54.28 349.506 57.48 349.506 61C349.506 62.984 349.218 64.904 348.642 66.76C348.066 68.552 347.266 70.216 346.242 71.752C350.018 73.032 353.09 75.336 355.458 78.664C357.89 81.928 359.106 85.64 359.106 89.8ZM379.977 109H370.377V41.8H379.977V109ZM432.544 109H422.944V51.4H388.96V41.8H466.528V51.4H432.544V109ZM549.196 51.4L487.468 99.4H549.196V109H471.532V99.4L533.644 51.4H471.532V41.8H549.196V51.4ZM602.054 41.8L566.726 109H555.782L591.11 41.8H602.054ZM622.131 49.48L648.723 73.192C649.811 74.152 650.355 75.368 650.355 76.84C650.355 78.312 649.811 79.496 648.723 80.392L622.323 103.432H609.747L640.179 76.744L609.651 49.48H622.131Z" fill="white"/>
</svg>
